<?xml version="1.0" encoding="utf-8"?>
<!-- Generator: Adobe Illustrator 16.0.0, SVG Export Plug-In . SVG Version: 6.00 Build 0)  -->
<!DOCTYPE svg PUBLIC "-//W3C//DTD SVG 1.1//EN" "http://www.w3.org/Graphics/SVG/1.1/DTD/svg11.dtd">
<svg width="32px" height="32px" viewBox="0 0 32 32" version="1.1" xmlns="http://www.w3.org/2000/svg" xmlns:xlink="http://www.w3.org/1999/xlink">
    <defs>
        <linearGradient x1="50%" y1="0%" x2="50%" y2="100%" id="linearGradient-1">
            <stop stop-color="#0F9EFF" offset="0%"></stop>
            <stop stop-color="#0197FD" offset="100%"></stop>
        </linearGradient>
        <linearGradient x1="50%" y1="28.0125637%" x2="50%" y2="100%" id="linearGradient-2">
            <stop stop-color="#17A0FD" offset="0%"></stop>
            <stop stop-color="#0774BE" offset="100%"></stop>
        </linearGradient>
    </defs>
    <g id="⚙️-Symbols" stroke="none" stroke-width="1" fill="none" fill-rule="evenodd">
        <g id="Chrome-Extension-/-Header-/-Default" transform="translate(0.000000, -1.000000)">
            <g id="Header">
                <g id="Logo-+-Name">
                    <g id="Logo-/-Dock-Icon" transform="translate(0.000000, 1.000000)">
                        <path d="M19.658763,5.85586378 L19.6618027,6.17706 L19.2301635,6.24028657 C17.6571782,6.47069767 16.3089738,7.45442337 15.6285881,8.8407409 L15.4447008,9.21541982 L15.0431931,9.10144454 C14.0182557,8.81049741 12.9499931,8.6611886 11.8607434,8.6611886 C5.58367822,8.6611886 0.5,13.6220423 0.5,19.7353697 C0.5,25.8486972 5.58367822,30.8095509 11.8607434,30.8095509 C18.1378086,30.8095509 23.2214868,25.8486972 23.2214868,19.7353697 C23.2214868,18.2263419 22.9119762,16.7603681 22.3190856,15.4024356 L22.1457527,15.0054411 L22.5140031,14.7773172 C23.4512919,14.1966853 24.1572117,13.3141281 24.5005307,12.2855474 L24.5713965,12.0732341 L28.5041426,10.3786978 L28.7390064,10.5686378 C29.120465,10.8771323 29.6413641,10.9460281 30.0859921,10.7347694 C30.7196209,10.4332068 30.9877415,9.67554832 30.6845824,9.04206178 C30.3814288,8.40779804 29.6211456,8.13833264 28.9865743,8.44004647 C28.5422775,8.65137349 28.2686694,9.09768345 28.2689833,9.5866378 L28.2691959,9.91774786 L24.7563376,11.4095996 L24.7307477,10.6826256 C24.6533902,8.48501351 23.0001178,6.6413807 20.7906359,6.25993914 L20.0845984,6.13804991 L21.8822074,3.0214894 L22.1855584,3.03481662 C22.6755853,3.05634513 23.1340229,2.80279423 23.3649132,2.36872354 C23.6940878,1.7498438 23.4578226,0.980070308 22.8364706,0.649777313 C22.215303,0.319501409 21.4448782,0.55411914 21.1157201,1.17296805 C20.8850052,1.60698687 20.9312103,2.12926789 21.2230316,2.5233459 L21.4174807,2.78593173 L19.658763,5.85586378 Z M16.6206157,19.9855671 L16.6207213,19.9854999 L16.620551,19.9856084 C16.6205726,19.9855946 16.6205941,19.9855809 16.6206157,19.9855671 Z M17.1582493,20.8287457 L17.158079,20.8288543 L9.89238872,25.4583131 C9.28825613,25.8431775 8.48673196,25.6656045 8.10159297,25.061181 C7.96918029,24.8530074 7.8988043,24.6113629 7.8988043,24.3646549 L7.8988043,15.105954 C7.8988043,14.3896754 8.47921254,13.8091603 9.19551736,13.8091603 C9.44242814,13.8091603 9.68422048,13.8796356 9.89242299,14.0123176 L17.1579048,18.6416437 C17.7621234,19.026281 17.9396636,19.8279515 17.554751,20.4324616 C17.4530958,20.5918248 17.3177088,20.7270528 17.1582493,20.8287457 Z" id="Combined-Shape" stroke="url(#linearGradient-2)" fill="url(#linearGradient-1)"></path>
                        <path d="M16.8894001,20.4071771 C16.9874092,20.3446733 17.0706995,20.2615657 17.1332106,20.1635681 C17.3695752,19.7923543 17.260657,19.2997689 16.8894001,19.0634318 L9.62374414,14.4339948 C9.49577827,14.3524455 9.34720626,14.3091603 9.19551736,14.3091603 C8.75534249,14.3091603 8.3988043,14.6658302 8.3988043,15.105954 L8.3988043,24.3646549 C8.3988043,24.5163262 8.44209451,24.6648809 8.52348011,24.7928319 C8.76001783,25.1640457 9.25248728,25.2731243 9.62374414,25.0366141 L16.8894001,20.4071771 Z" id="Path" fill="#FFFFFF"></path>
                    </g>
                </g>
            </g>
        </g>
    </g>
</svg>