<svg xmlns="http://www.w3.org/2000/svg" width="307.645" height="61.67" viewBox="0 0 307.645 61.67"><g fill="#231F20"><path d="M30.23 24.374c2.15-2.13 3.362-5.08 3.362-8.426 0-7.37-5.05-12.133-12.865-12.133H4.157c-1.304 0-2.36 1.057-2.36 2.36v38.98c0 1.305 1.057 2.36 2.36 2.36h16.907c7.91 0 13.65-5.528 13.65-13.145 0-4.246-1.594-7.723-4.485-9.996zm-9.166 16.34H8.597V28.082h12.3c4.656 0 7.018 2.118 7.018 6.29 0 6.04-5.707 6.345-6.85 6.345zm-.168-19.378h-12.3v-10.72h12.13c4.025 0 6.065 1.79 6.065 5.332 0 5.13-4.91 5.388-5.894 5.388zM67.016 13.866h-2.08c-1.303 0-2.36 1.06-2.36 2.36v17.47c0 4.53-3.187 7.693-7.75 7.693-4.528 0-7.69-3.165-7.69-7.694v-17.47c0-1.302-1.06-2.36-2.362-2.36h-2.08c-1.303 0-2.36 1.06-2.36 2.36v17.47c0 8.264 6.23 14.494 14.494 14.494 2.97 0 5.672-.768 7.905-2.19.34.888 1.2 1.517 2.205 1.517h2.08c1.303 0 2.36-1.057 2.36-2.36v-28.93c0-1.303-1.06-2.36-2.362-2.36zM106.164 13.866h-2.077c-1.304 0-2.36 1.06-2.36 2.36v.255c-2.757-2.15-6.197-3.345-9.942-3.345-9.26 0-16.796 7.914-16.796 17.64 0 9.634 7.534 17.472 16.795 17.472 3.736 0 7.175-1.186 9.933-3.324-.21 6.152-3.932 9.947-9.82 9.947-4.53 0-7.747-2.07-9.06-5.83-.33-.95-1.226-1.584-2.23-1.584h-2.19c-.743 0-1.443.352-1.89.945-.445.597-.585 1.366-.377 2.08 2.05 7.007 7.938 11.19 15.75 11.19 9.79 0 16.627-7.115 16.627-17.303v-28.14c-.002-1.303-1.06-2.36-2.363-2.36zM91.784 41.39c-5.512 0-9.995-4.763-9.995-10.614 0-5.947 4.482-10.783 9.994-10.783 5.854 0 9.94 4.434 9.94 10.783.002 6.248-4.086 10.613-9.94 10.613zM149.472 16.958c0-7.984-5.49-13.143-13.99-13.143h-16.4c-1.303 0-2.36 1.057-2.36 2.36v38.98c0 1.305 1.058 2.36 2.36 2.36h2.08c1.303 0 2.36-1.056 2.36-2.36v-15.05h12.075c5.225 0 5.895 2.76 5.895 5.165v5.672c0 2.074.33 3.78 1.013 5.223.39.826 1.222 1.352 2.135 1.352h2.135c.007.002.015.002.02 0 1.305 0 2.36-1.057 2.36-2.36 0-.396-.096-.77-.268-1.095-.295-.875-.594-2.492-.594-3.623v-5.17c0-3.56-1.116-6.46-3.21-8.48 2.8-2.35 4.39-5.815 4.39-9.832zm-25.95-6.342h11.96c4.732 0 7.132 2.13 7.132 6.342 0 4.725-3.72 6.4-6.906 6.4H123.52V10.616zM179.884 37.814c-.034.047-.062.096-.09.146-1.274 2.484-4.65 3.43-9.263 3.43-5.06 0-9.067-3.462-10.083-8.366h24.183c1.29 0 2.34-1.035 2.36-2.324.07-4.54-1.865-9.26-5.18-12.627-3.135-3.184-7.26-4.938-11.615-4.938-9.262 0-16.797 7.914-16.797 17.64 0 9.767 7.525 17.415 17.133 17.415 7.78 0 12.928-4.83 14.945-9.286.2-.44.093-.92-.287-1.294s-.985-.595-1.63-.595h-1.87c-.67 0-1.28.235-1.652.615m-9.84-17.637c3.962 0 7.446 2.498 9.06 6.23h-18.093c1.578-3.73 5.052-6.23 9.032-6.23zM235.74 1.006h-2.077c-1.304 0-2.36 1.057-2.36 2.36v41.788c0 1.305 1.057 2.36 2.36 2.36h2.078c1.305 0 2.362-1.056 2.362-2.36V3.368c0-1.305-1.057-2.362-2.36-2.362zM273.657 40.438V24.092c0-6.86-5.146-10.957-13.764-10.957-7.588 0-12.845 3.62-14.424 9.934-.177.704-.02 1.452.43 2.024.446.574 1.133.908 1.86.908h2.135c1.03 0 1.943-.668 2.252-1.652.934-2.967 3.54-4.47 7.746-4.47 6.963 0 6.963 3.17 6.963 4.212 0 1.385-3.13 1.957-8.525 2.48-3.95.358-14.447 1.31-14.447 11 0 5.034 4.026 10.45 12.865 10.45 4.178 0 7.884-.996 10.73-2.822.115.336.246.658.393.967.392.824 1.223 1.35 2.135 1.35h2.135c.008.002.015.002.02 0 1.305 0 2.36-1.057 2.36-2.36 0-.396-.096-.77-.268-1.097-.296-.874-.595-2.49-.595-3.622zm-6.8-5.787c0 5.187-6.355 6.57-10.11 6.57-.058 0-5.895-.1-5.895-3.704 0-1.406 0-3.533 8.116-4.332 2.607-.22 5.43-.457 7.888-1.246v2.713zM305.933 14.883c-.44-.637-1.167-1.018-1.94-1.018h-2.19c-.98 0-1.86.607-2.208 1.525l-7.61 20.088-7.52-20.08c-.344-.922-1.226-1.533-2.21-1.533h-2.247c-.775 0-1.5.38-1.942 1.02-.44.637-.54 1.45-.267 2.176l10.58 28.036-1.035 2.715c-1.244 3.335-2.926 4.02-5.067 4.02-.498 0-1.05-.046-1.638-.134-.683-.102-1.37.098-1.892.545-.52.45-.82 1.103-.82 1.79v1.965c0 1.137.81 2.113 1.927 2.322.94.174 1.862.264 2.744.264 5.138 0 9.092-2.974 11.134-8.38l12.47-33.14c.27-.726.17-1.54-.27-2.177z"/></g><path fill="#231F20" d="M196.233 60.502h-2.104c-1.194 0-2.16-.967-2.16-2.158V16.026c0-1.193.966-2.158 2.16-2.158h2.103c1.193 0 2.16.965 2.16 2.158v.98c2.89-2.468 6.53-3.88 10.354-3.88 9.283 0 16.835 7.91 16.835 17.63 0 9.597-7.552 17.403-16.835 17.403-3.826 0-7.467-1.39-10.354-3.825v14.01c0 1.19-.966 2.157-2.16 2.157zm12.514-40.896c-5.707 0-10.354 5.004-10.354 11.15 0 6.057 4.646 10.98 10.354 10.98 5.71 0 10.355-4.924 10.355-10.98 0-6.146-4.644-11.15-10.355-11.15z"/><path fill="#211F1F" d="M215.075 31.96c-2.13 1.18-4.274 2.345-6.412 3.51-.74.405-1.326.804-2.067 1.2-.84.45-1.393.13-1.396-.818-.004-1.615 0-3.232 0-4.852 0-1.594-.01-3.19.006-4.785.008-.996.566-1.328 1.426-.834 2.844 1.64 5.68 3.286 8.505 4.95.862.508.835 1.135-.062 1.63z"/><path fill="#231F20" d="M219.812 19.776c-2.14 3.65-5.703-.166-8.396-.91-2.893-.797-7.72.607-6.47-4.287 1.01-3.952 6.148-5.776 9.696-4.67 3.367 1.048 7.296 6.017 5.24 9.74-.025.042-.047.08-.07.126z"/><g fill="#231F20"><path d="M209.77 4.517l1.72.067-.258 6.64-1.72-.067z"/><path d="M212.696 2.91c-.043 1.106-.98 1.972-2.086 1.927-1.104-.045-1.97-.98-1.925-2.086.044-1.104.978-1.968 2.086-1.925 1.108.045 1.97.978 1.926 2.086z"/></g><g fill="#231F20"><path d="M219.258 14.195l-1.453-.918 3.55-5.614 1.452.918z"/><circle cx="223.007" cy="6.663" r="2.006"/></g></svg>