<svg xmlns="http://www.w3.org/2000/svg" xmlns:xlink="http://www.w3.org/1999/xlink" width="280.631" height="237" viewBox="0 0 280.631 237"><defs><path id="a" d="M-.37 0h281v237h-281z"/></defs><clipPath id="b"><use xlink:href="#a" overflow="visible"/></clipPath><g clip-path="url(#b)" fill="#333333"><path d="M207.002 21.747l10.58 4.776-18.44 40.86-10.583-4.775z"/><circle cx="217.053" cy="13.547" r="13.544"/><path d="M241.964 106.312l-6.767-9.432 36.427-26.138 6.768 9.432z"/><path d="M276.52 57.693c-6.072 4.36-7.46 12.826-3.102 18.902 4.364 6.075 12.826 7.465 18.902 3.103 6.075-4.364 7.465-12.824 3.107-18.903-4.365-6.073-12.825-7.462-18.906-3.102z"/><g><path d="M231.33 142.717c18.618-22.74 15.272-56.263-7.468-74.877-22.738-18.61-56.26-15.27-74.876 7.47-4.485 5.48-7.682 11.584-9.653 17.953-40.862-7.88-84.64 6.33-112.852 40.79-40.95 50.027-33.59 123.774 16.435 164.728 50.023 40.95 123.773 33.596 164.726-16.432 30.895-37.74 34.287-88.98 12.613-129.456 4.058-2.786 7.805-6.174 11.078-10.175zm-39.123 127c-18.518 22.627-45.928 35.603-75.2 35.603-22.325 0-44.153-7.802-61.46-21.968-41.434-33.922-47.552-95.23-13.634-136.667 18.52-22.625 45.933-35.6 75.2-35.6 22.328 0 44.155 7.803 61.464 21.97 41.433 33.92 47.548 95.226 13.63 136.662z"/><path d="M172.4 140.6c-15.57-12.745-35.205-19.765-55.288-19.765-26.335 0-50.992 11.674-67.655 32.028-30.513 37.275-25.006 92.427 12.265 122.942 15.572 12.745 35.206 19.765 55.287 19.765 26.332 0 50.993-11.676 67.654-32.03 30.513-37.275 25.01-92.426-12.263-122.94zm-1.862 75.808c-18.79 10.41-37.672 20.648-56.53 30.94-6.51 3.552-11.68 7.07-18.214 10.57-7.397 3.966-12.27 1.132-12.29-7.197-.044-14.26-.015-28.516-.015-42.773h.02c0-14.06-.087-28.12.035-42.177.075-8.776 5.003-11.72 12.57-7.358 25.05 14.44 50.046 28.975 74.967 43.634 7.592 4.466 7.356 9.985-.544 14.362z"/></g></g></svg>
