<?xml version="1.0" encoding="utf-8"?>
<!-- Svg Vector Icons : http://www.onlinewebfonts.com/icon -->
<!DOCTYPE svg PUBLIC "-//W3C//DTD SVG 1.1//EN" "http://www.w3.org/Graphics/SVG/1.1/DTD/svg11.dtd">
<svg version="1.1" xmlns="http://www.w3.org/2000/svg" xmlns:xlink="http://www.w3.org/1999/xlink" x="0px" y="0px" viewBox="0 0 1000 1000" enable-background="new 0 0 1000 1000" xml:space="preserve">
<g fill="#666666"><path d="M990,497.5c0,66.4-12.9,129.8-38.8,190.3c-25.9,60.5-60.7,112.7-104.5,156.4C803,888,750.8,922.8,690.3,948.7c-60.5,25.9-124,38.8-190.3,38.8c-66.4,0-129.8-12.9-190.3-38.8C249.2,922.8,197,888,153.3,844.3c-43.8-43.8-78.6-95.9-104.5-156.4C22.9,627.3,10,563.9,10,497.5c0-80.9,18.4-156.5,55.2-226.7c36.8-70.2,87.2-128,151.2-173.4c64-45.4,135.2-73.7,213.6-85v142.2c-80.6,16.4-147.4,56.7-200.4,120.9c-53,64.2-79.6,138.2-79.6,222c0,47.4,9.3,92.7,27.9,135.9s43.5,80.4,74.6,111.6c31.2,31.2,68.4,56.1,111.6,74.6c43.2,18.6,88.5,27.9,135.9,27.9s92.7-9.3,135.9-27.9c43.2-18.6,80.4-43.5,111.6-74.6c31.2-31.2,56.1-68.4,74.6-111.6S850,544.9,850,497.5c0-83.9-26.5-157.9-79.6-222c-53-64.2-119.9-104.5-200.4-120.9V12.5c78.4,11.3,149.6,39.6,213.6,85c64,45.4,114.4,103.2,151.2,173.4C971.6,341,990,416.6,990,497.5L990,497.5z"/></g>
</svg>
