<?xml version="1.0" encoding="UTF-8"?>
<svg width="320px" height="58px" viewBox="0 0 320 58" version="1.1" xmlns="http://www.w3.org/2000/svg" xmlns:xlink="http://www.w3.org/1999/xlink">
    <!-- Generator: Sketch 53 (72520) - https://sketchapp.com -->
    <title>Logo / Horizontal</title>
    <desc>Created with Sketch.</desc>
    <g id="Logo-/-Horizontal" stroke="none" stroke-width="1" fill="none" fill-rule="evenodd">
        <g id="Group-2">
            <path d="M29.524245,33.6346685 C29.6939941,33.5257503 29.8382509,33.3809283 29.9465184,33.210159 C30.3558957,32.5632874 30.1672522,31.7049152 29.524245,31.2930776 L16.9403176,23.2258881 C16.718684,23.0837815 16.4613611,23.0083534 16.1986399,23.0083534 C15.4362685,23.0083534 14.8187536,23.6298812 14.8187536,24.3968344 L14.8187536,40.5309118 C14.8187536,40.7952119 14.8937311,41.0540813 15.0346888,41.2770468 C15.444366,41.9239185 16.2973103,42.1139974 16.9403176,41.7018581 L29.524245,33.6346685 Z M41.7875686,26.0662098 C43.4346748,31.3639801 43.0552885,37.2968552 40.2601265,42.5852723 C34.7168883,53.0731015 21.7715692,57.0548017 11.3466945,51.478249 C0.921219943,45.9013947 -3.0363936,32.878577 2.50654468,22.3904461 C7.39178012,13.1474829 18.0259921,8.95790277 27.6180165,11.9107633 C29.9102293,9.97376885 32.9864071,9.15703304 35.9642144,9.73058855 L38.9867082,4.01313619 C38.4297752,3.25644117 38.3110108,2.22036036 38.7788705,1.33483409 C39.427876,0.107165826 40.945421,-0.357773177 42.1681545,0.296339579 C43.3911878,0.950452335 43.8566483,2.47621258 43.2076428,3.70388085 C42.7394832,4.58940711 41.8199589,5.06943174 40.8848392,5.02809712 L38.0536879,10.3837962 C38.3011138,10.492111 38.5431412,10.6094771 38.7803701,10.7361964 C41.3565978,12.1141175 43.0882786,14.4581221 43.7795714,17.0887536 L49.9937084,14.1144716 C49.9931086,13.1743353 50.5107534,12.2716114 51.4116833,11.8404642 C52.6611088,11.2427717 54.1573602,11.7761995 54.7541813,13.0325304 C55.3516022,14.2885597 54.8225608,15.7916915 53.5737352,16.3896857 C52.6731052,16.8202295 51.6486123,16.6563996 50.9207305,16.0641379 L44.1004752,19.3283657 C44.157758,21.0264038 43.7888686,22.7597423 42.9383236,24.3690769 C42.6123213,24.9863807 42.2344346,25.55179 41.8106616,26.0683218 L41.7875686,26.0662098 Z" id="Fill-1" fill="#0197FD"></path>
            <g id="Group" transform="translate(71.000000, 18.000000)">
                <path d="M238.295799,17.6655848 L238.295799,27 L234.48357,27 L234.48357,17.5884582 L223.77937,0 L227.899573,0 L236.524648,14.2330025 L245.18807,0 L249,0 L238.295799,17.6655848 Z M216.590808,17.1641121 L210.776747,3.93405506 L204.962086,17.1641121 L216.590808,17.1641121 Z M217.938345,20.2497749 L203.614549,20.2497749 L200.649848,27 L196.683931,27 L208.889955,0 L212.701585,0 L224.946256,27 L220.903046,27 L217.938345,20.2497749 Z M177.135359,0 L180.985635,0 L180.985635,23.6442441 L195.578759,23.6442441 L195.578759,27 L177.135359,27 L177.135359,0 Z M159.473278,15.4670275 C161.911607,15.4670275 163.772933,14.9460481 165.056359,13.9049895 C166.339784,12.8633307 166.981497,11.3658149 166.981497,9.41124165 C166.981497,7.45696851 166.339784,5.9591526 165.056359,4.91779391 C163.772933,3.87643522 161.911607,3.35545577 159.473278,3.35545577 L152.927328,3.35545577 L152.927328,15.4670275 L159.473278,15.4670275 Z M159.588618,0 C163.079991,0 165.826594,0.835787882 167.828726,2.50706354 C169.830858,4.17863931 170.832073,6.48013205 170.832073,9.41124165 C170.832073,12.3429515 169.830858,14.6441441 167.828726,16.3157199 C165.826594,17.9869955 163.079991,18.8224833 159.588618,18.8224833 L152.927328,18.8224833 L152.927328,27 L149.076752,27 L149.076752,0 L159.588618,0 Z M142.196465,23.6442441 L142.196465,27 L122.635909,27 L122.635909,0 L141.65721,0 L141.65721,3.35545577 L126.486185,3.35545577 L126.486185,11.6485123 L140.001399,11.6485123 L140.001399,14.9271416 L126.486185,14.9271416 L126.486185,23.6442441 L142.196465,23.6442441 Z M104.396226,15.5057409 C106.834855,15.5057409 108.695882,14.9784592 109.979607,13.9241961 C111.263032,12.869933 111.904745,11.3658149 111.904745,9.41124165 C111.904745,7.45696851 111.263032,5.9591526 109.979607,4.91779391 C108.695882,3.87643522 106.834855,3.35545577 104.396226,3.35545577 L97.8505763,3.35545577 L97.8505763,15.5057409 L104.396226,15.5057409 Z M112.020086,27 L106.206024,18.7072436 C105.487018,18.7585613 104.922599,18.7843702 104.511866,18.7843702 L97.8505763,18.7843702 L97.8505763,27 L94,27 L94,0 L104.511866,0 C108.00294,0 110.749542,0.835787882 112.751674,2.50706354 C114.754106,4.17863931 115.755322,6.48013205 115.755322,9.41124165 C115.755322,11.4942591 115.241831,13.2684703 114.214851,14.7341751 C113.188171,16.19988 111.724994,17.2670475 109.82562,17.9353777 L116.217283,27 L112.020086,27 Z" id="Fill-3" fill="#010C4A"></path>
                <path d="M80.0488992,13.8434556 L83.7676178,13.8434556 L83.7676178,24.519511 C82.4248644,25.6404238 80.8623877,26.5011899 79.0801877,27.1005922 C77.2982892,27.7002988 75.4389299,28 73.5018084,28 C70.7644602,28 68.2983753,27.3939038 66.1029509,26.1817115 C63.9078279,24.9692149 62.1841002,23.3006248 60.9314665,21.1759413 C59.6788329,19.0512578 59.052516,16.6591252 59.052516,14.0001521 C59.052516,11.3405705 59.6788329,8.94235262 60.9314665,6.80458571 C62.1841002,4.6668188 63.9144588,2.99792448 66.1222407,1.79881554 C68.3303241,0.599706601 70.8160002,0 73.5795706,0 C75.7487729,0 77.7181445,0.358728606 79.4870827,1.07527302 C81.2563223,1.79242597 82.7603267,2.84183646 84,4.22350448 L81.5984155,6.64819343 C79.4289118,4.53628905 76.807604,3.480489 73.7344921,3.480489 C71.6683698,3.480489 69.81534,3.93019288 68.1754026,4.82960065 C66.5354652,5.72900842 65.2505813,6.98045096 64.3210523,8.58392828 C63.391222,10.1871013 62.9264575,11.9926107 62.9264575,14.0001521 C62.9264575,15.9812225 63.391222,17.7736485 64.3210523,19.3771258 C65.2505813,20.9806031 66.5354652,22.2384352 68.1754026,23.1509264 C69.81534,24.0634175 71.6554095,24.519511 73.695611,24.519511 C76.1234176,24.519511 78.2410799,23.9328878 80.0488992,22.7599457 L80.0488992,13.8434556 Z M41.2061027,28 C37.5904642,28 34.7753538,26.9572833 32.7607716,24.8715458 C30.7467922,22.7858082 29.7395011,19.7875795 29.7395011,15.8771638 L29.7395011,0.312784569 L33.6134426,0.312784569 L33.6134426,15.7207715 C33.6134426,21.5866993 36.1569883,24.519511 41.2446824,24.519511 C43.7237276,24.519511 45.621968,23.7962728 46.9391021,22.3491877 C48.2565376,20.9021027 48.9148032,18.6928335 48.9148032,15.7207715 L48.9148032,0.312784569 L52.6724029,0.312784569 L52.6724029,15.8771638 C52.6724029,19.8137463 51.6654132,22.8183646 49.6511324,24.891323 C47.6365502,26.9636729 44.8214398,28 41.2061027,28 L41.2061027,28 Z M12.7837357,24.519511 C14.9788587,24.519511 16.6317565,24.1546971 17.7421276,23.4244607 C18.8528002,22.6945287 19.4082872,21.5474491 19.4082872,19.983222 C19.4082872,16.9329639 17.1999024,15.407987 12.7837357,15.407987 L3.8742429,15.407987 L3.8742429,24.519511 L12.7837357,24.519511 Z M3.8742429,3.480489 L3.8742429,12.2399783 L11.8153257,12.2399783 C13.8039871,12.2399783 15.3339122,11.8687748 16.4060051,11.1257593 C17.4774952,10.3827438 18.0136923,9.29438739 18.0136923,7.86038576 C18.0136923,6.42638413 17.4774952,5.33802771 16.4060051,4.59501222 C15.3339122,3.85199674 13.8039871,3.480489 11.8153257,3.480489 L3.8742429,3.480489 Z M18.2457732,13.4917251 C19.8212102,13.9350394 21.0608835,14.7364738 21.9647932,15.8966368 C22.8687028,17.0567998 23.3205069,18.5233578 23.3205069,20.2960065 C23.3205069,22.6686661 22.4361885,24.4936485 20.6669489,25.7709535 C18.8980107,27.0482586 16.3219135,27.6872154 12.9389586,27.6872154 L0,27.6872154 L0,0.312784569 L12.1640497,0.312784569 C15.2630824,0.312784569 17.6583374,0.938657973 19.3498149,2.18979625 C21.0415937,3.44123879 21.8873324,5.17524586 21.8873324,7.39120891 C21.8873324,8.82490628 21.5578982,10.0632654 20.8996326,11.1062863 C20.2407641,12.149003 19.3564457,12.9440478 18.2457732,13.4917251 L18.2457732,13.4917251 Z" id="Fill-5" fill="#0197FD"></path>
            </g>
        </g>
    </g>
</svg>