<?xml version="1.0" encoding="utf-8"?>
<!-- Generator: Adobe Illustrator 16.0.0, SVG Export Plug-In . SVG Version: 6.00 Build 0)  -->
<!DOCTYPE svg PUBLIC "-//W3C//DTD SVG 1.1//EN" "http://www.w3.org/Graphics/SVG/1.1/DTD/svg11.dtd">
<svg version="1.1" xmlns="http://www.w3.org/2000/svg" xmlns:xlink="http://www.w3.org/1999/xlink" x="0px" y="0px" width="91.75px"
	 height="66.5px" viewBox="0 0 91.75 66.5" enable-background="new 0 0 91.75 66.5" xml:space="preserve">
<g id="Layer_1">
	<g>
		<path fill="#FFFFFF" d="M31.854,8.367c-13.255,0-24,10.746-24,24s10.745,24,24,24s24-10.746,24-24S45.109,8.367,31.854,8.367z
			 M31.854,41.367c-4.97,0-9-4.029-9-9s4.03-9,9-9c4.971,0,9,4.029,9,9S36.825,41.367,31.854,41.367z"/>
		<circle fill="#E4556D" cx="33.854" cy="33.367" r="9"/>
	</g>
	<path fill="#7A7B7C" d="M88.764,3.14c-0.436-0.165-0.852-0.248-1.25-0.248c-0.902,0-1.65,0.316-2.25,0.949L65.115,23.941v-8.253
		c0-3.964-1.408-7.355-4.227-10.172C58.07,2.699,54.682,1.29,50.713,1.29H15.514c-3.965,0-7.357,1.409-10.174,4.227
		c-2.816,2.816-4.226,6.208-4.226,10.172V50.89c0,3.967,1.409,7.359,4.226,10.176c2.816,2.817,6.209,4.225,10.174,4.225h35.199
		c3.969,0,7.357-1.407,10.176-4.225c2.818-2.816,4.227-6.209,4.227-10.176v-8.301l20.148,20.152c0.6,0.632,1.348,0.949,2.25,0.949
		c0.398,0,0.814-0.084,1.25-0.252c1.301-0.566,1.951-1.549,1.951-2.949V6.091C90.715,4.688,90.064,3.706,88.764,3.14z M33.115,57.29
		c-13.255,0-24-10.746-24-24s10.745-24,24-24c13.254,0,24,10.746,24,24S46.369,57.29,33.115,57.29z"/>
</g>
</svg>
