<?xml version="1.0" encoding="UTF-8"?>
<svg width="24px" height="24px" viewBox="0 0 24 24" version="1.1" xmlns="http://www.w3.org/2000/svg" xmlns:xlink="http://www.w3.org/1999/xlink">
    <!-- Generator: Sketch 55.2 (78181) - https://sketchapp.com -->
    <title>icon / camera</title>
    <desc>Created with Sketch.</desc>
    <g id="icon-/-camera" stroke="none" stroke-width="1">
        <path d="M20.8,4.76630915 L17.313,4.76630915 L15.3,2.69954033 L8.7,2.69954033 L6.687,4.76630915 L3.2,4.76630915 C1.99,4.76630915 1,5.69635512 1,6.83307796 L1,19.2336909 C1,20.3704137 1.99,21.3004597 3.2,21.3004597 L20.8,21.3004597 C22.01,21.3004597 23,20.3704137 23,19.2336909 L23,6.83307796 C23,5.69635512 22.01,4.76630915 20.8,4.76630915 Z M20.8,19.2336909 L3.2,19.2336909 L3.2,6.83307796 L7.655,6.83307796 L9.668,4.76630915 L14.332,4.76630915 L16.345,6.83307796 L20.8,6.83307796 L20.8,19.2336909 Z M12,7.40480591 C9.15985286,7.40480591 6.85480591,9.70985286 6.85480591,12.55 C6.85480591,15.3901471 9.15985286,17.6951941 12,17.6951941 C14.8401471,17.6951941 17.1451941,15.3901471 17.1451941,12.55 C17.1451941,9.70985286 14.8401471,7.40480591 12,7.40480591 Z M12,15.6371165 C10.3020859,15.6371165 8.91288354,14.2479141 8.91288354,12.55 C8.91288354,10.8520859 10.3020859,9.46288354 12,9.46288354 C13.6979141,9.46288354 15.0871165,10.8520859 15.0871165,12.55 C15.0871165,14.2479141 13.6979141,15.6371165 12,15.6371165 Z" id="camera_alt" fill="#000000"></path>
    </g>
</svg>