<svg width="32px" height="28px" viewBox="0 0 32 28" version="1.1" xmlns="http://www.w3.org/2000/svg" xmlns:xlink="http://www.w3.org/1999/xlink">
    <g id="🖼-Design" stroke="none" stroke-width="1" fill="none" fill-rule="evenodd">
        <g id="Plugin---Settings-Expanded" transform="translate(-1300.000000, -186.000000)" fill="#0094FF">
            <g id="Extension" transform="translate(1030.000000, 91.000000)">
                <g id="Actions" transform="translate(79.000000, 74.000000)">
                    <g id="Screenshot-CTA" transform="translate(172.000000, 0.000000)">
                        <g id="icon-/-camera" transform="translate(18.000000, 18.000000)">
                            <path d="M29.4666667,6.75227129 L24.52675,6.75227129 L21.675,3.82434881 L12.325,3.82434881 L9.47325,6.75227129 L4.53333333,6.75227129 C2.81916667,6.75227129 1.41666667,8.06983641 1.41666667,9.68019378 L1.41666667,27.2477287 C1.41666667,28.8580861 2.81916667,30.1756512 4.53333333,30.1756512 L29.4666667,30.1756512 C31.1808333,30.1756512 32.5833333,28.8580861 32.5833333,27.2477287 L32.5833333,9.68019378 C32.5833333,8.06983641 31.1808333,6.75227129 29.4666667,6.75227129 Z M29.4666667,27.2477287 L4.53333333,27.2477287 L4.53333333,9.68019378 L10.8445833,9.68019378 L13.6963333,6.75227129 L20.3036667,6.75227129 L23.1554167,9.68019378 L29.4666667,9.68019378 L29.4666667,27.2477287 Z M17,10.4901417 C12.9764582,10.4901417 9.71097503,13.7556249 9.71097503,17.7791667 C9.71097503,21.8027084 12.9764582,25.0681916 17,25.0681916 C21.0235418,25.0681916 24.289025,21.8027084 24.289025,17.7791667 C24.289025,13.7556249 21.0235418,10.4901417 17,10.4901417 Z M17,22.1525816 C14.5946218,22.1525816 12.626585,20.1845449 12.626585,17.7791667 C12.626585,15.3737884 14.5946218,13.4057517 17,13.4057517 C19.4053782,13.4057517 21.373415,15.3737884 21.373415,17.7791667 C21.373415,20.1845449 19.4053782,22.1525816 17,22.1525816 Z" id="camera_alt"></path>
                        </g>
                    </g>
                </g>
            </g>
        </g>
    </g>
</svg>