<?xml version="1.0" encoding="UTF-8"?>
<svg width="16px" height="18px" viewBox="0 0 16 18" version="1.1" xmlns="http://www.w3.org/2000/svg" xmlns:xlink="http://www.w3.org/1999/xlink">
    <!-- Generator: sketchtool 54.1 (76490) - https://sketchapp.com -->
    <title>C8667600-DA5B-4247-9E23-F865481E2AC4</title>
    <desc>Created with sketchtool.</desc>
    <g id="🖼-Design" stroke="none" stroke-width="1" fill="none" fill-rule="evenodd">
        <g id="Assets" transform="translate(-361.000000, -129.000000)" fill="#757575">
            <g id="icon-/-settings" transform="translate(357.045165, 126.000000)">
                <path d="M18.1715733,12 C18.1715733,11.7222792 18.1510014,11.4548444 18.1098576,11.1976955 L19.8481841,9.83994933 C20.0024734,9.71651786 20.0436173,9.49022684 19.9510437,9.31536559 L18.3052908,6.4661559 C18.2024312,6.2810087 17.9864261,6.21929297 17.8012789,6.2810087 L15.7543738,7.10388515 C15.3223637,6.77473457 14.8697816,6.50729972 14.3657698,6.30158061 L14.0571911,4.12095803 C14.0263332,3.91523892 13.851472,3.77123554 13.6457529,3.77123554 L10.3542471,3.77123554 C10.148528,3.77123554 9.98395271,3.91523892 9.95309484,4.12095803 L9.64451617,6.30158061 C9.14050435,6.50729972 8.67763635,6.78502052 8.25591217,7.10388515 L6.20900701,6.2810087 C6.02385981,6.20900701 5.80785474,6.2810087 5.70499519,6.4661559 L4.05924229,9.31536559 C3.95638274,9.50051279 3.99752656,9.71651786 4.16210185,9.83994933 L5.90042834,11.1976955 C5.85928452,11.4548444 5.82842665,11.7325652 5.82842665,12 C5.82842665,12.2674348 5.84899857,12.5451556 5.89014239,12.8023045 L4.15181589,14.1600507 C3.99752656,14.2834821 3.95638274,14.5097732 4.04895634,14.6846344 L5.69470923,17.5338441 C5.79756879,17.7189913 6.01357385,17.780707 6.19872105,17.7189913 L8.24562621,16.8961149 C8.67763635,17.2252654 9.13021839,17.4927003 9.63423022,17.6984194 L9.94280888,19.879042 C9.98395271,20.0847611 10.148528,20.2287645 10.3542471,20.2287645 L13.6457529,20.2287645 C13.851472,20.2287645 14.0263332,20.0847611 14.0469052,19.879042 L14.3554838,17.6984194 C14.8594957,17.4927003 15.3223637,17.2149795 15.7440878,16.8961149 L17.790993,17.7189913 C17.9761402,17.790993 18.1921453,17.7189913 18.2950048,17.5338441 L19.9407577,14.6846344 C20.0436173,14.4994872 20.0024734,14.2834821 19.8378981,14.1600507 L18.1201436,12.8023045 C18.1510014,12.5451556 18.1715733,12.2777208 18.1715733,12 Z M12,15.0857867 C10.3028173,15.0857867 8.91421333,13.6971827 8.91421333,12 C8.91421333,10.3028173 10.3028173,8.91421333 12,8.91421333 C13.6971827,8.91421333 15.0857867,10.3028173 15.0857867,12 C15.0857867,13.6971827 13.6971827,15.0857867 12,15.0857867 Z" id="Shape"></path>
            </g>
        </g>
    </g>
</svg>