<?xml version="1.0" encoding="UTF-8"?>
<svg width="24px" height="24px" viewBox="0 0 24 24" version="1.1" xmlns="http://www.w3.org/2000/svg" xmlns:xlink="http://www.w3.org/1999/xlink">
    <!-- Generator: Sketch 61.1 (89650) - https://sketch.com -->
    <title>icon / tabs</title>
    <desc>Created with Sketch.</desc>
    <g id="icon-/-tabs" stroke="none" stroke-width="1" fill="none" fill-rule="evenodd">
        <path d="M21,8.59581467 C22.1045695,8.59581467 23,9.49124517 23,10.5958147 L23,19.0010228 C23,20.1055923 22.1045695,21.0010228 21,21.0010228 L3,21.0010228 C1.8954305,21.0010228 1,20.1055923 1,19.0010228 L1,10.5958147 C1,9.49124517 1.8954305,8.59581467 3,8.59581467 L21,8.59581467 Z M21,10.5958147 L3,10.5958147 L3,19.0010228 L21,19.0010228 L21,10.5958147 Z M19.79597,5.795815 C20.2377978,5.795815 20.59597,6.1539872 20.59597,6.595815 L20.59597,7.795815 L2.94924809,7.795815 L2.94924809,6.595815 C2.94924809,6.1539872 3.30742029,5.795815 3.74924809,5.795815 L19.79597,5.795815 Z M17.718831,3 C18.3263442,3 18.818831,3.49248678 18.818831,4.1 L18.818831,5 L4.72638805,5 L4.72638805,4.1 C4.72638805,3.49248678 5.21887482,3 5.82638805,3 L17.718831,3 Z" id="Combined-Shape" fill="#909090"></path>
    </g>
</svg>