<svg width="15px" height="19px" viewBox="0 0 15 19" version="1.1" xmlns="http://www.w3.org/2000/svg" xmlns:xlink="http://www.w3.org/1999/xlink">
    <g id="🖼-Design" stroke="none" stroke-width="1" fill="none" fill-rule="evenodd">
        <g id="Plugin---Screenshot-Captured---Hover" transform="translate(-1345.000000, -342.000000)" fill="#0094FF">
            <g id="Extension" transform="translate(1030.000000, 91.000000)">
                <g id="video" transform="translate(38.475256, 104.364658)">
                    <g id="Delete" transform="translate(263.663999, 136.610632)">
                        <g id="icon-/-trash" transform="translate(8.000000, 8.000000)">
                            <path d="M16,9 L16,19 L8,19 L8,9 L16,9 Z M14.5,3 L9.5,3 L8.5,4 L5,4 L5,6 L19,6 L19,4 L15.5,4 L14.5,3 Z M18,7 L6,7 L6,19 C6,20.1 6.9,21 8,21 L16,21 C17.1,21 18,20.1 18,19 L18,7 Z" id="delete"></path>
                        </g>
                    </g>
                </g>
            </g>
        </g>
    </g>
</svg>