<svg width="32px" height="24px" viewBox="0 0 32 24" version="1.1" xmlns="http://www.w3.org/2000/svg" xmlns:xlink="http://www.w3.org/1999/xlink">
    <g id="🖼-Design" stroke="none" stroke-width="1" fill="none" fill-rule="evenodd">
        <g id="Plugin---Settings-Expanded" transform="translate(-1127.000000, -188.000000)" fill="#0094FF">
            <g id="Extension" transform="translate(1030.000000, 91.000000)">
                <g id="Actions" transform="translate(79.000000, 74.000000)">
                    <g id="Tab-CTA">
                        <g id="icon-/-video" transform="translate(17.000000, 18.000000)">
                            <path d="M10.6304698,19.412846 C11.5749003,18.8731715 12.75,19.5551084 12.75,20.6428571 L12.75,25.5 L29.75,25.5 L29.75,8.5 L12.75,8.5 L12.75,13.3571429 C12.75,14.4448916 11.5749003,15.1268285 10.6304698,14.587154 L4.25,10.9411712 L4.25,23.0588288 L10.6304698,19.412846 Z M9.91666667,23.0840284 L3.53619683,26.7300111 C2.59176641,27.2696856 1.41666667,26.5877488 1.41666667,25.5 L1.41666667,8.5 C1.41666667,7.41225122 2.59176641,6.73031436 3.53619683,7.26998888 L9.91666667,10.9159716 L9.91666667,7.08333333 C9.91666667,6.30092994 10.5509299,5.66666667 11.3333333,5.66666667 L31.1666667,5.66666667 C31.9490701,5.66666667 32.5833333,6.30092994 32.5833333,7.08333333 L32.5833333,26.9166667 C32.5833333,27.6990701 31.9490701,28.3333333 31.1666667,28.3333333 L11.3333333,28.3333333 C10.5509299,28.3333333 9.91666667,27.6990701 9.91666667,26.9166667 L9.91666667,23.0840284 Z" id="video"></path>
                        </g>
                    </g>
                </g>
            </g>
        </g>
    </g>
</svg>