<?xml version="1.0" encoding="UTF-8"?>
<svg width="24px" height="24px" viewBox="0 0 24 24" version="1.1" xmlns="http://www.w3.org/2000/svg" xmlns:xlink="http://www.w3.org/1999/xlink">
    <!-- Generator: Sketch 55.2 (78181) - https://sketchapp.com -->
    <title>icon / video</title>
    <desc>Created with Sketch.</desc>
    <g id="icon-/-video" stroke="none" stroke-width="1" fill="#909090" fill-rule="evenodd">
        <path d="M7.50386106,13.7031854 C8.17051783,13.3222387 9,13.8036059 9,14.5714286 L9,18 L21,18 L21,6 L9,6 L9,9.42857143 C9,10.1963941 8.17051783,10.6777613 7.50386106,10.2968146 L3,7.72317968 L3,16.2768203 L7.50386106,13.7031854 Z M7,16.2946082 L2.49613894,18.8682431 C1.82948217,19.2491899 1,18.7678227 1,18 L1,6 C1,5.23217733 1.82948217,4.75081013 2.49613894,5.13175686 L7,7.70539175 L7,5 C7,4.44771525 7.44771525,4 8,4 L22,4 C22.5522847,4 23,4.44771525 23,5 L23,19 C23,19.5522847 22.5522847,20 22,20 L8,20 C7.44771525,20 7,19.5522847 7,19 L7,16.2946082 Z" id="video" fill="#000000"></path>
    </g>
</svg>