<?xml version="1.0" encoding="UTF-8"?>
<svg width="20px" height="16px" viewBox="0 0 20 16" version="1.1" xmlns="http://www.w3.org/2000/svg" xmlns:xlink="http://www.w3.org/1999/xlink">
    <!-- Generator: sketchtool 61 (101010) - https://sketch.com -->
    <title>44F24760-6939-43D1-B55B-D3CE52AD4BBA</title>
    <desc>Created with sketchtool.</desc>
    <g id="🔌-Browser-Extension" stroke="none" stroke-width="1" fill="none" fill-rule="evenodd">
        <g id="Extension---Mic-2" transform="translate(-809.000000, -269.000000)">
            <g id="Video-icon" transform="translate(809.000000, 269.000000)">
                <g id="Icon" fill="#757575">
                    <path d="M13,0 L1,0 C0.45,0 0,0.45 0,1 L0,11 C0,11.55 0.45,12 1,12 L13,12 C13.55,12 14,11.55 14,11 L14,7.5 L18,11.5 L18,0.5 L14,4.5 L14,1 C14,0.45 13.55,0 13,0 Z" id="Icon-Shape"></path>
                </g>
                <g id="Group-3" transform="translate(10.000000, 6.000000)">
                    <rect id="Rectangle" fill="#DF574B" x="0" y="0" width="10" height="10"></rect>
                    <path d="M6.64362888,2.81390599 L7.35073566,3.52101277 L5.70462888,5.16690599 L7.35073566,6.81390599 L6.64362888,7.52101277 L4.99762888,5.87490599 L3.35073566,7.52101277 L2.64362888,6.81390599 L4.28962888,5.16690599 L2.64362888,3.52101277 L3.35073566,2.81390599 L4.99762888,4.45990599 L6.64362888,2.81390599 Z" id="Combined-Shape" fill="#FFFFFF" fill-rule="nonzero"></path>
                </g>
            </g>
        </g>
    </g>
</svg>